<svg viewBox="0 0 32 32" width="32" height="32" fill="none" xmlns="http://www.w3.org/2000/svg">
  <defs>
    <linearGradient id="brainGradient" x1="0%" y1="100%" x2="100%" y2="0%">
      <stop offset="0%" stop-color="#E8845C"/>
      <stop offset="50%" stop-color="#F5A864"/>
      <stop offset="100%" stop-color="#F9C97C"/>
    </linearGradient>
  </defs>
  
  <!-- Leaves -->
  <path d="M13 11 C13 11 11 6 13 3 C15 6 13 11 13 11" fill="#5BBD8C"/>
  <path d="M19 11 C19 11 21 6 19 3 C17 6 19 11 19 11" fill="#4DAF7C"/>
  
  <!-- Brain - Left -->
  <path 
    d="M16 10 C13 10 10 9 8 11 C6 14 5 16 5 19 C5 22 6 25 8 27 C10 29 13 29 15 28 C16 27 16 25 16 24 L16 10Z" 
    fill="url(#brainGradient)"
  />
  
  <!-- Brain - Right -->
  <path 
    d="M16 10 C19 10 22 9 24 12 C26 15 27 17 27 20 C27 23 25 26 23 27 C21 29 18 29 17 27 C16 26 16 24 16 24 L16 10Z" 
    fill="url(#brainGradient)"
  />
  
  <!-- Simplified folds -->
  <path d="M8 17 Q11 16 13 18" stroke="white" stroke-width="1.2" stroke-linecap="round" fill="none"/>
  <path d="M7 22 Q10 21 13 23" stroke="white" stroke-width="1.2" stroke-linecap="round" fill="none"/>
  <path d="M24 18 Q21 17 19 19" stroke="white" stroke-width="1.2" stroke-linecap="round" fill="none"/>
  <path d="M25 23 Q22 22 19 24" stroke="white" stroke-width="1.2" stroke-linecap="round" fill="none"/>
</svg>
