<svg viewBox="0 0 32 32" fill="none" xmlns="http://www.w3.org/2000/svg">
  <!-- Favicon: simplified brain with leaf -->
  
  <!-- Brain outline -->
  <path 
    d="M16 28 
       C13 28 10 26 8 24
       C6 21 5 18 5 15
       C5 12 6 9 8 7
       C9 6 11 5 13 5
       C13 4 13 3 15 3
       C16 3 17 3 17 4
       C18 3 19 3 20 3
       C22 3 22 4 21 5
       C23 5 25 6 26 7
       C28 9 29 12 29 15
       C29 18 28 21 26 24
       C24 26 21 28 18 28
       C17 28 16 28 16 28Z" 
    stroke="#3e879e" 
    stroke-width="2" 
    stroke-linecap="round"
    stroke-linejoin="round"
    fill="none"
  />
  
  <!-- Leaf -->
  <path 
    d="M8 26 
       C8 26 10 22 13 17
       C16 12 20 8 26 5
       C26 5 24 11 21 17
       C18 23 13 27 8 26Z" 
    fill="#f48c44"
  />
  
  <!-- Leaf vein -->
  <path 
    d="M8 26 C13 21 18 13 26 5" 
    stroke="white" 
    stroke-width="1" 
    stroke-linecap="round"
    fill="none"
  />
</svg>

