<svg viewBox="0 0 32 32" width="32" height="32" fill="none" xmlns="http://www.w3.org/2000/svg">
  <defs>
    <linearGradient id="brainGradient" x1="0%" y1="0%" x2="0%" y2="100%">
      <stop offset="0%" stop-color="#F9C97C"/>
      <stop offset="50%" stop-color="#F5A864"/>
      <stop offset="100%" stop-color="#E8845C"/>
    </linearGradient>
  </defs>
  
  <!-- Leaves (simplified) -->
  <path d="M13 11 C13 11 11 6 13 3 C15 6 13 11 13 11" fill="#5BBD8C"/>
  <path d="M19 11 C19 11 21 6 19 3 C17 6 19 11 19 11" fill="#4DAF7C"/>
  
  <!-- Brain - Left -->
  <path 
    d="M16 10 C13 10 11 9 9 11 C7 13 6 15 6 18 C6 21 7 23 8 25 C9 27 11 28 13 28 C15 28 16 26 16 24 L16 10Z" 
    fill="url(#brainGradient)"
  />
  
  <!-- Brain - Right -->
  <path 
    d="M16 10 C19 10 21 9 23 11 C25 13 26 15 26 18 C26 21 25 23 24 25 C23 27 21 28 19 28 C17 28 16 26 16 24 L16 10Z" 
    fill="url(#brainGradient)"
  />
  
  <!-- Simplified folds -->
  <path d="M9 16 Q12 15 14 17" stroke="white" stroke-width="1.2" stroke-linecap="round" fill="none"/>
  <path d="M8 21 Q11 20 14 22" stroke="white" stroke-width="1.2" stroke-linecap="round" fill="none"/>
  <path d="M23 16 Q20 15 18 17" stroke="white" stroke-width="1.2" stroke-linecap="round" fill="none"/>
  <path d="M24 21 Q21 20 18 22" stroke="white" stroke-width="1.2" stroke-linecap="round" fill="none"/>
  
  <!-- Center line -->
  <line x1="16" y1="10" x2="16" y2="28" stroke="white" stroke-width="1.2" stroke-linecap="round"/>
</svg>
