<svg version="1.1" id="Layer_1" xmlns="http://www.w3.org/2000/svg" xmlns:xlink="http://www.w3.org/1999/xlink" x="0px" y="0px"
	 width="32" height="32" viewBox="0 0 524 698" xml:space="preserve">
<path fill="#FEFEFE" opacity="1.000000" stroke="none" 
	d="
M270.000000,699.000000 
	C180.000000,699.000000 90.500000,699.000000 1.000000,699.000000 
	C1.000000,466.333344 1.000000,233.666672 1.000000,1.000000 
	C175.666672,1.000000 350.333344,1.000000 525.000000,1.000000 
	C525.000000,233.666672 525.000000,466.333344 525.000000,699.000000 
	C440.166656,699.000000 355.333344,699.000000 270.000000,699.000000 
M177.888123,511.057983 
	C177.888123,511.057983 177.840210,511.130310 177.898727,511.829834 
	C180.811157,516.557373 183.723587,521.284851 187.056946,526.695679 
	C189.014343,523.116699 190.652618,520.121277 192.838867,516.765015 
	C211.888870,493.545319 235.626328,490.509949 262.590271,501.417694 
	C262.722656,499.312408 262.876801,498.002838 262.877014,496.693268 
	C262.886963,439.039642 263.017761,381.385345 262.713837,323.733307 
	C262.675110,316.388550 261.140869,308.810913 258.938538,301.766602 
	C253.765564,285.220459 241.666183,276.834869 224.528320,276.897644 
	C204.089828,276.972504 190.724777,288.123474 181.322052,305.046570 
	C179.842484,307.709503 178.882416,308.170624 176.044556,307.212799 
	C166.893188,304.124146 157.654465,304.403564 148.742447,308.157715 
	C132.359146,315.059052 121.534607,326.759949 118.244453,344.615509 
	C87.370605,348.372589 64.372818,376.020203 70.719276,402.065308 
	C97.211075,406.174225 113.019463,392.486481 123.481636,370.069519 
	C124.218788,370.244171 124.746887,370.256775 125.152954,370.485718 
	C126.601974,371.302856 128.021301,372.174774 129.430908,373.059326 
	C139.864319,379.606476 151.087112,383.898407 163.501190,381.690369 
	C179.772217,378.796326 189.708115,367.455170 197.396210,353.841522 
	C198.045090,352.692505 197.139343,350.455292 196.565308,348.864532 
	C194.682571,343.646851 192.619583,338.494202 190.451660,332.864105 
	C193.928757,332.078552 196.296036,331.543732 198.865616,330.963196 
	C202.320602,340.855652 205.125732,350.815033 214.311218,356.768433 
	C223.709290,362.859619 233.624573,361.390900 243.845291,357.822510 
	C245.040085,360.567413 246.054138,362.897156 247.245987,365.635284 
	C231.574600,371.182587 217.318085,371.300415 205.088898,360.568878 
	C198.850220,367.210388 192.795883,373.528107 186.971069,380.050781 
	C186.377701,380.715240 186.874817,382.728119 187.356903,383.916016 
	C189.976501,390.371155 193.683670,396.538940 195.292419,403.220764 
	C199.761292,421.781769 196.458389,438.044556 179.926392,448.313568 
	C177.358765,449.908447 174.673752,451.314362 172.043030,452.807678 
	C171.994507,453.360107 171.945999,453.912567 171.897476,454.465027 
	C180.261566,458.019562 188.625656,461.574066 196.996109,465.949829 
	C196.649384,468.375244 196.302658,470.800629 195.159576,473.145111 
	C186.270035,469.688507 177.380493,466.231873 168.175110,462.652405 
	C169.100021,479.032379 159.531723,488.696960 145.211105,495.216431 
	C157.847321,496.020172 166.563568,503.958344 176.415558,510.526550 
	C176.927704,510.723267 177.439850,510.919983 177.888123,511.057983 
M380.049316,513.494263 
	C376.963470,512.878662 373.894409,512.144470 370.783875,511.702881 
	C369.446960,511.513092 367.754517,511.485687 366.679291,512.136902 
	C339.202148,528.779541 309.449524,525.887817 285.463562,504.164703 
	C284.590546,503.374054 283.517975,502.803711 282.135406,501.853790 
	C282.135406,515.760864 282.135406,528.892334 282.011261,542.950867 
	C281.996765,558.779053 281.973846,574.607300 281.983032,590.435486 
	C281.983795,591.756775 281.926880,593.175903 282.358582,594.384583 
	C289.828003,615.298340 308.882782,626.986938 332.736481,620.206116 
	C332.494598,609.574036 335.560822,599.838989 341.713318,590.619507 
	C344.173737,592.197083 346.216461,593.506836 348.595032,595.031921 
	C338.257233,613.371399 338.204865,630.200745 355.357697,644.687744 
	C353.807404,647.059082 352.403534,649.206543 350.050812,652.805298 
	C345.242737,646.406555 340.204712,641.347778 337.258362,635.274292 
	C334.777771,630.160950 332.086151,629.732910 327.264771,630.329956 
	C311.344910,632.301025 297.256683,628.221985 285.828949,616.472351 
	C284.792145,615.406311 283.718262,614.376465 282.197296,612.869873 
	C281.401123,625.661865 282.283600,637.226562 285.883514,648.471313 
	C292.351532,668.675110 305.508484,681.863220 326.637421,685.928284 
	C349.473572,690.321716 370.544861,685.018738 388.894196,671.244873 
	C405.722382,658.612915 416.079163,641.987183 412.955475,619.745667 
	C410.952332,605.482605 402.529388,595.012878 391.741516,585.704895 
	C383.689697,595.321167 373.847778,601.016663 361.733521,603.838501 
	C361.072174,600.988831 360.487183,598.468079 359.826294,595.620422 
	C371.050995,592.534912 380.521973,587.383057 386.878876,577.643799 
	C393.167847,568.008606 394.047119,557.227112 393.083984,545.865356 
	C396.182220,545.507690 398.718536,545.214905 402.945160,544.727051 
	C401.718140,553.874817 401.737854,562.378540 399.200195,570.034668 
	C396.989197,576.705200 398.369751,580.209900 403.136597,584.780457 
	C416.358673,597.458069 423.871368,612.972900 421.909149,631.723206 
	C421.193268,638.564026 418.652069,645.213806 416.610138,652.060364 
	C416.764984,652.067139 416.919861,652.073853 417.888000,652.219299 
	C435.072968,650.221924 461.226135,631.529419 465.625488,602.419922 
	C470.921997,567.374207 452.783905,548.821716 421.041595,540.627441 
	C422.345093,532.077820 422.344971,532.078247 429.649536,534.288940 
	C430.445221,534.529785 431.254303,534.731079 432.039001,535.003052 
	C452.360962,542.045715 467.746460,554.086853 473.399170,575.942078 
	C474.000946,578.268799 474.447113,580.635803 475.231049,584.187317 
	C477.650146,581.305542 479.464447,579.424927 480.958069,577.317017 
	C488.022186,567.347961 493.127533,556.970032 487.905762,544.323181 
	C487.492432,543.322144 488.420135,541.222229 489.368805,540.285095 
	C505.709900,524.142090 507.629211,505.239563 500.019379,484.611633 
	C497.835114,478.690704 494.322266,473.508850 489.565735,469.827606 
	C484.029572,473.464325 479.045990,476.738037 473.268188,480.001038 
	C468.853119,480.886627 464.438019,481.772217 460.025177,481.981598 
	C461.656464,479.252045 463.287781,476.522522 465.478149,473.343964 
	C478.419922,469.808533 487.696655,462.113220 489.891479,448.564148 
	C492.496429,432.483459 489.928802,417.902557 473.126617,409.752563 
	C477.160614,393.624298 473.805817,378.887543 464.570435,365.584808 
	C458.102966,356.269012 449.954193,348.798676 437.983521,346.621979 
	C437.868347,346.588135 437.753143,346.554321 437.638000,346.520477 
	C437.743927,346.692841 437.849854,346.865204 437.890472,347.871094 
	C438.106079,349.013214 438.314911,350.156647 438.538239,351.297241 
	C440.643677,362.050171 441.475586,372.752167 436.925537,383.152740 
	C429.251587,400.694153 414.081573,407.813019 396.724060,411.668793 
	C395.763489,411.882202 393.745514,410.207581 393.266968,408.997589 
	C392.658447,407.458954 393.119629,405.497223 393.119629,403.917847 
	C397.991699,402.485626 402.529175,401.436829 406.859009,399.828949 
	C424.350403,393.333557 432.743378,380.242645 430.818604,362.367767 
	C430.268616,357.260040 428.846375,352.251373 428.164093,347.151794 
	C425.721039,328.891479 414.753845,317.049896 398.983734,309.352966 
	C391.056580,305.483887 382.371765,303.555389 373.389587,306.360413 
	C381.119659,347.607300 379.190460,352.930664 346.545471,381.633881 
	C349.037720,392.362213 351.462555,402.800507 354.004150,413.741272 
	C364.420166,413.602692 374.116821,417.354645 383.442322,423.851685 
	C381.716858,426.220367 380.218445,428.277344 378.611542,430.483276 
	C370.177094,425.645050 361.974976,421.940216 352.350464,422.572113 
	C342.541077,423.216095 335.299377,428.381073 328.886719,435.300293 
	C326.398193,433.590454 324.295807,432.145905 321.570648,430.273468 
	C324.478119,427.603851 326.722168,425.379059 329.146393,423.371979 
	C330.929352,421.895813 332.931702,420.679840 334.865570,419.391907 
	C337.906555,417.366608 342.410126,416.008606 343.639282,413.204285 
	C344.975555,410.155548 343.533112,405.731781 342.864014,401.985840 
	C337.065918,369.525665 313.084351,358.314789 282.221710,365.888794 
	C282.141296,366.482605 281.977509,367.128448 281.977295,367.774384 
	C281.964111,406.925293 281.947571,446.076263 282.026398,485.227020 
	C282.029480,486.756714 282.564301,488.607452 283.514038,489.764771 
	C297.116394,506.340363 314.158936,515.619385 336.143097,513.849915 
	C353.844879,512.425049 367.764465,504.931183 375.193329,488.061218 
	C377.567780,482.669250 378.950470,476.840546 380.768463,471.268311 
	C388.489502,471.087097 389.413330,471.797424 387.186127,478.604370 
	C384.376221,487.192078 380.770264,495.519287 377.368286,504.319611 
	C379.243622,504.771576 382.117249,505.464172 384.831970,506.852356 
	C382.996582,507.648010 381.161163,508.443665 379.335968,509.234924 
	C379.932281,510.855988 380.423065,512.190247 380.049316,513.494263 
M142.742798,485.987244 
	C148.618347,484.073975 153.514404,480.828613 156.764435,475.450867 
	C162.391632,466.139648 158.605347,457.302551 154.703217,448.592407 
	C155.859756,448.066559 156.432404,447.695007 157.058044,447.546112 
	C158.182755,447.278381 159.351135,447.197601 160.480652,446.946075 
	C171.074219,444.586395 180.580643,440.159851 185.788834,430.137909 
	C191.689224,418.784027 187.138779,395.718079 177.716461,386.130127 
	C169.605408,389.627411 161.030731,392.385956 152.176544,390.562714 
	C143.677322,388.812592 135.468628,385.651520 126.586441,382.944092 
	C126.184967,383.530701 125.256363,384.881165 124.334175,386.235992 
	C115.664131,398.973450 104.481560,408.073395 88.816040,410.559601 
	C85.223160,411.129822 81.576202,411.359314 77.123863,411.392090 
	C68.941521,409.583069 63.070183,413.191742 59.146030,419.884552 
	C51.827793,432.366058 52.837948,445.548737 56.350555,459.497742 
	C71.224220,454.279541 85.863670,451.222626 100.687210,456.417999 
	C116.009720,461.788269 124.863464,473.298645 128.925797,489.583435 
	C133.525513,488.336121 137.767899,487.185730 142.742798,485.987244 
M374.013153,218.713943 
	C397.475586,187.031311 405.207733,151.304565 401.578674,112.548927 
	C399.263519,87.824677 395.142151,63.429039 389.126038,39.351109 
	C387.011322,30.887508 384.631226,22.490204 382.300323,13.794190 
	C380.920929,14.528443 380.283264,14.765862 379.763519,15.159135 
	C348.591309,38.746605 319.455658,64.462303 295.242371,95.401146 
	C278.257050,117.104355 268.501740,141.579575 266.040527,169.880859 
	C263.714874,188.806198 265.295197,207.326233 272.192444,225.195557 
	C275.429504,233.582199 280.082520,241.111572 287.514862,247.536270 
	C295.041687,231.344727 302.294891,215.741745 310.000549,199.656418 
	C322.250641,173.805954 334.500732,147.955490 346.750793,122.105034 
	C347.349548,122.321915 347.948273,122.538795 348.546997,122.755676 
	C346.963654,127.444649 345.413422,132.145111 343.791290,136.820633 
	C335.802277,159.847839 327.794189,182.868454 319.357269,206.459122 
	C313.895355,222.776855 308.433441,239.094589 302.846558,255.785614 
	C311.536713,258.229553 319.573761,257.983765 327.455048,255.495819 
	C347.374084,249.207916 361.786407,235.832428 374.013153,218.713943 
M199.541122,522.421631 
	C196.425812,529.780640 193.310501,537.139709 190.029755,544.889526 
	C189.138321,544.571228 187.473312,543.877380 185.751968,543.377502 
	C171.325012,539.188904 157.538193,539.903137 145.986786,550.496155 
	C134.762573,560.789124 132.899445,573.771362 136.814087,588.095703 
	C137.820267,591.777527 139.565201,592.354797 142.884628,591.768005 
	C151.270538,590.285706 159.238159,591.954041 166.255157,596.590942 
	C171.739761,600.215149 176.669037,604.679688 182.025742,608.913696 
	C201.908218,599.287231 222.937408,600.724854 233.293839,612.875549 
	C231.997009,614.842285 230.657761,616.873413 229.178604,619.116638 
	C227.241135,617.968201 225.726837,616.977173 224.131744,616.140137 
	C212.414032,609.990662 200.315842,607.621582 188.619125,615.413696 
	C177.859314,622.581604 173.744400,633.380066 174.970291,646.192261 
	C175.619003,652.972229 175.655838,652.968689 168.154984,654.703430 
	C163.258011,640.443604 166.811630,627.693542 175.054413,615.770630 
	C166.463745,605.066101 156.276642,597.547302 142.261642,600.416260 
	C128.085815,603.318115 119.523643,612.749878 116.693863,627.188721 
	C116.493187,628.212646 114.610725,629.453552 113.391960,629.598572 
	C111.719643,629.797424 109.934143,629.044556 107.917244,628.643921 
	C109.238647,615.293030 115.438423,605.168030 126.113731,598.177551 
	C129.904205,595.695435 129.711121,593.785767 128.670715,590.200134 
	C120.778122,562.999817 136.104645,538.249268 160.612381,533.797485 
	C166.548187,532.719238 172.655396,532.584656 178.983856,531.987854 
	C176.618896,524.080078 172.169815,517.302429 165.580017,512.285095 
	C151.001740,501.185577 134.423553,502.823059 117.484047,505.983948 
	C117.703651,504.905487 117.782501,504.288635 117.956017,503.699677 
	C122.628609,487.840942 116.520592,473.726318 101.788811,466.237030 
	C90.452194,460.473785 78.780319,461.645447 67.301331,465.179779 
	C61.888634,466.846344 55.758812,468.966431 52.037861,472.868347 
	C34.946609,490.790741 36.524220,522.891113 54.748272,539.715393 
	C56.830418,541.637634 56.637386,543.170776 56.391933,545.719360 
	C55.815365,551.706055 54.964813,558.099915 56.432945,563.755920 
	C59.140862,574.188416 66.658913,581.818726 74.449516,589.034241 
	C76.078239,590.542786 77.096626,593.033875 77.704491,595.260986 
	C79.618752,602.274353 80.362190,609.719849 83.071388,616.383057 
	C91.850838,637.975891 115.736000,654.562805 136.146698,653.280518 
	C137.634872,653.187012 139.823151,654.529785 140.700256,655.856506 
	C156.999115,680.510437 196.179733,694.062195 224.110382,684.500244 
	C248.186707,676.257874 260.124146,657.756531 261.532684,633.934448 
	C263.397369,602.397522 262.382355,570.690369 262.835724,538.133057 
	C262.854797,532.639648 262.885986,527.146240 262.890350,521.652832 
	C262.898804,510.978271 262.892578,510.978302 253.002228,507.045685 
	C233.752197,499.391449 210.973923,505.825409 199.541122,522.421631 
M152.170807,141.309982 
	C154.844833,158.042297 156.666565,174.966568 160.381973,191.464355 
	C166.810730,220.010513 183.937103,240.591278 210.420456,253.132584 
	C219.801559,257.575043 229.616943,259.007324 240.326233,255.617966 
	C225.463013,233.869019 210.902069,212.562378 196.341141,191.255737 
	C196.858505,190.881332 197.375854,190.506943 197.893219,190.132553 
	C214.900055,209.819534 231.906891,229.506531 249.219101,249.547028 
	C254.223343,243.241226 256.830933,236.894745 257.048645,229.684235 
	C257.851898,203.084259 247.075562,181.344955 227.676300,164.048553 
	C210.948654,149.134171 190.493805,140.274231 169.898987,132.006454 
	C164.017929,129.645523 157.985107,127.662666 151.463455,125.304527 
	C151.717468,131.092804 151.920959,135.729919 152.170807,141.309982 
M308.831940,278.026794 
	C292.966034,283.172394 285.072479,295.367859 283.272888,310.715027 
	C281.557251,325.345703 282.428741,340.280060 282.195557,355.081421 
	C282.191772,355.321625 282.604523,355.568359 283.156738,356.184631 
	C304.868195,353.144104 325.552795,354.859497 340.942413,374.277008 
	C352.204529,367.747070 361.217102,359.384277 365.988342,347.275146 
	C372.500488,330.747589 368.843445,315.031677 360.465881,300.352997 
	C350.170898,282.314728 328.970123,273.303375 308.831940,278.026794 
z"/>
<path fill="#F09E6D" opacity="1.000000" stroke="none" 
	d="
M262.604980,539.056335 
	C262.382355,570.690369 263.397369,602.397522 261.532684,633.934448 
	C260.124146,657.756531 248.186707,676.257874 224.110382,684.500244 
	C196.179733,694.062195 156.999115,680.510437 140.700256,655.856506 
	C139.823151,654.529785 137.634872,653.187012 136.146698,653.280518 
	C115.736000,654.562805 91.850838,637.975891 83.071388,616.383057 
	C80.362190,609.719849 79.618752,602.274353 77.704491,595.260986 
	C77.096626,593.033875 76.078239,590.542786 74.449516,589.034241 
	C66.658913,581.818726 59.140862,574.188416 56.432945,563.755920 
	C54.964813,558.099915 55.815365,551.706055 56.391933,545.719360 
	C56.637386,543.170776 56.830418,541.637634 54.748272,539.715393 
	C36.524220,522.891113 34.946609,490.790741 52.037861,472.868347 
	C55.758812,468.966431 61.888634,466.846344 67.301331,465.179779 
	C78.780319,461.645447 90.452194,460.473785 101.788811,466.237030 
	C116.520592,473.726318 122.628609,487.840942 117.956017,503.699677 
	C117.782501,504.288635 117.703651,504.905487 117.484047,505.983948 
	C134.423553,502.823059 151.001740,501.185577 165.580017,512.285095 
	C172.169815,517.302429 176.618896,524.080078 178.983856,531.987854 
	C172.655396,532.584656 166.548187,532.719238 160.612381,533.797485 
	C136.104645,538.249268 120.778122,562.999817 128.670715,590.200134 
	C129.711121,593.785767 129.904205,595.695435 126.113731,598.177551 
	C115.438423,605.168030 109.238647,615.293030 107.917244,628.643921 
	C109.934143,629.044556 111.719643,629.797424 113.391960,629.598572 
	C114.610725,629.453552 116.493187,628.212646 116.693863,627.188721 
	C119.523643,612.749878 128.085815,603.318115 142.261642,600.416260 
	C156.276642,597.547302 166.463745,605.066101 175.054413,615.770630 
	C166.811630,627.693542 163.258011,640.443604 168.154984,654.703430 
	C175.655838,652.968689 175.619003,652.972229 174.970291,646.192261 
	C173.744400,633.380066 177.859314,622.581604 188.619125,615.413696 
	C200.315842,607.621582 212.414032,609.990662 224.131744,616.140137 
	C225.726837,616.977173 227.241135,617.968201 229.178604,619.116638 
	C230.657761,616.873413 231.997009,614.842285 233.293839,612.875549 
	C222.937408,600.724854 201.908218,599.287231 182.025742,608.913696 
	C176.669037,604.679688 171.739761,600.215149 166.255157,596.590942 
	C159.238159,591.954041 151.270538,590.285706 142.884628,591.768005 
	C139.565201,592.354797 137.820267,591.777527 136.814087,588.095703 
	C132.899445,573.771362 134.762573,560.789124 145.986786,550.496155 
	C157.538193,539.903137 171.325012,539.188904 185.751968,543.377502 
	C187.473312,543.877380 189.138321,544.571228 190.029755,544.889526 
	C193.310501,537.139709 196.425812,529.780640 200.185089,522.215027 
	C208.919739,524.854431 216.871933,528.219055 225.133545,530.424927 
	C237.509949,533.729309 250.103683,536.219727 262.604980,539.056335 
z"/>
<path fill="#F5C46B" opacity="1.000000" stroke="none" 
	d="
M438.060455,346.933197 
	C449.954193,348.798676 458.102966,356.269012 464.570435,365.584808 
	C473.805817,378.887543 477.160614,393.624298 473.126617,409.752563 
	C489.928802,417.902557 492.496429,432.483459 489.891479,448.564148 
	C487.696655,462.113220 478.419922,469.808533 464.738373,473.596985 
	C460.178986,473.925140 456.342865,474.266449 452.542511,474.030975 
	C432.416199,472.783691 420.301819,461.437073 418.998413,442.807007 
	C418.491547,435.562286 418.087769,435.268555 410.591339,436.692566 
	C408.298004,450.145264 415.143738,466.357178 427.119781,474.945709 
	C429.843811,476.899200 430.153687,478.524323 429.119324,481.535522 
	C424.574127,494.767303 415.434296,502.717499 401.532715,505.989258 
	C395.707031,506.036774 390.348938,506.096741 384.990875,506.156738 
	C382.117249,505.464172 379.243622,504.771576 377.368286,504.319611 
	C380.770264,495.519287 384.376221,487.192078 387.186127,478.604370 
	C389.413330,471.797424 388.489502,471.087097 380.768463,471.268311 
	C378.950470,476.840546 377.567780,482.669250 375.193329,488.061218 
	C367.764465,504.931183 353.844879,512.425049 336.143097,513.849915 
	C314.158936,515.619385 297.116394,506.340363 283.514038,489.764771 
	C282.564301,488.607452 282.029480,486.756714 282.026398,485.227020 
	C281.947571,446.076263 281.964111,406.925293 281.977295,367.774384 
	C281.977509,367.128448 282.141296,366.482605 282.221710,365.888794 
	C313.084351,358.314789 337.065918,369.525665 342.864014,401.985840 
	C343.533112,405.731781 344.975555,410.155548 343.639282,413.204285 
	C342.410126,416.008606 337.906555,417.366608 334.865570,419.391907 
	C332.931702,420.679840 330.929352,421.895813 329.146393,423.371979 
	C326.722168,425.379059 324.478119,427.603851 321.570648,430.273468 
	C324.295807,432.145905 326.398193,433.590454 328.886719,435.300293 
	C335.299377,428.381073 342.541077,423.216095 352.350464,422.572113 
	C361.974976,421.940216 370.177094,425.645050 378.611542,430.483276 
	C380.218445,428.277344 381.716858,426.220367 383.442322,423.851685 
	C374.116821,417.354645 364.420166,413.602692 354.004150,413.741272 
	C351.462555,402.800507 349.037720,392.362213 346.545471,381.633881 
	C379.190460,352.930664 381.119659,347.607300 373.389587,306.360413 
	C382.371765,303.555389 391.056580,305.483887 398.983734,309.352966 
	C414.753845,317.049896 425.721039,328.891479 428.164093,347.151794 
	C428.846375,352.251373 430.268616,357.260040 430.818604,362.367767 
	C432.743378,380.242645 424.350403,393.333557 406.859009,399.828949 
	C402.529175,401.436829 397.991699,402.485626 393.119629,403.917847 
	C393.119629,405.497223 392.658447,407.458954 393.266968,408.997589 
	C393.745514,410.207581 395.763489,411.882202 396.724060,411.668793 
	C414.081573,407.813019 429.251587,400.694153 436.925537,383.152740 
	C441.475586,372.752167 440.643677,362.050171 438.538239,351.297241 
	C438.314911,350.156647 438.106079,349.013214 437.950256,347.429199 
	C438.010010,346.987274 438.060455,346.933197 438.060455,346.933197 
z"/>
<path fill="#F09E6D" opacity="1.000000" stroke="none" 
	d="
M474.062408,480.011780 
	C479.045990,476.738037 484.029572,473.464325 489.565735,469.827606 
	C494.322266,473.508850 497.835114,478.690704 500.019379,484.611633 
	C507.629211,505.239563 505.709900,524.142090 489.368805,540.285095 
	C488.420135,541.222229 487.492432,543.322144 487.905762,544.323181 
	C493.127533,556.970032 488.022186,567.347961 480.958069,577.317017 
	C479.464447,579.424927 477.650146,581.305542 475.231049,584.187317 
	C474.447113,580.635803 474.000946,578.268799 473.399170,575.942078 
	C467.746460,554.086853 452.360962,542.045715 432.039001,535.003052 
	C431.254303,534.731079 430.445221,534.529785 429.649536,534.288940 
	C422.344971,532.078247 422.345093,532.077820 421.041595,540.627441 
	C452.783905,548.821716 470.921997,567.374207 465.625488,602.419922 
	C461.226135,631.529419 435.072968,650.221924 417.449402,652.116638 
	C417.010803,652.013977 416.943634,651.950745 416.943634,651.950745 
	C418.652069,645.213806 421.193268,638.564026 421.909149,631.723206 
	C423.871368,612.972900 416.358673,597.458069 403.136597,584.780457 
	C398.369751,580.209900 396.989197,576.705200 399.200195,570.034668 
	C401.737854,562.378540 401.718140,553.874817 402.945160,544.727051 
	C398.718536,545.214905 396.182220,545.507690 393.083984,545.865356 
	C394.047119,557.227112 393.167847,568.008606 386.878876,577.643799 
	C380.521973,587.383057 371.050995,592.534912 359.826294,595.620422 
	C360.487183,598.468079 361.072174,600.988831 361.733521,603.838501 
	C373.847778,601.016663 383.689697,595.321167 391.741516,585.704895 
	C402.529388,595.012878 410.952332,605.482605 412.955475,619.745667 
	C416.079163,641.987183 405.722382,658.612915 388.894196,671.244873 
	C370.544861,685.018738 349.473572,690.321716 326.637421,685.928284 
	C305.508484,681.863220 292.351532,668.675110 285.883514,648.471313 
	C282.283600,637.226562 281.401123,625.661865 282.197296,612.869873 
	C283.718262,614.376465 284.792145,615.406311 285.828949,616.472351 
	C297.256683,628.221985 311.344910,632.301025 327.264771,630.329956 
	C332.086151,629.732910 334.777771,630.160950 337.258362,635.274292 
	C340.204712,641.347778 345.242737,646.406555 350.050812,652.805298 
	C352.403534,649.206543 353.807404,647.059082 355.357697,644.687744 
	C338.204865,630.200745 338.257233,613.371399 348.595032,595.031921 
	C346.216461,593.506836 344.173737,592.197083 341.713318,590.619507 
	C335.560822,599.838989 332.494598,609.574036 332.736481,620.206116 
	C308.882782,626.986938 289.828003,615.298340 282.358582,594.384583 
	C281.926880,593.175903 281.983795,591.756775 281.983032,590.435486 
	C281.973846,574.607300 281.996765,558.779053 282.512207,542.481567 
	C286.471771,542.337769 289.924438,542.848389 293.389862,542.958252 
	C315.186981,543.649780 336.839996,542.190308 358.208344,537.747131 
	C395.985596,529.892212 430.424927,514.404053 461.519867,491.599426 
	C466.080505,488.254700 469.900024,483.899475 474.062408,480.011780 
z"/>
<path fill="#F5C46B" opacity="1.000000" stroke="none" 
	d="
M176.190094,509.998260 
	C166.563568,503.958344 157.847321,496.020172 145.211105,495.216431 
	C159.531723,488.696960 169.100021,479.032379 168.175110,462.652405 
	C177.380493,466.231873 186.270035,469.688507 195.848846,473.428711 
	C221.954010,480.351227 242.452225,459.925659 244.632187,444.141388 
	C238.275818,441.120697 238.355194,441.166779 235.018707,446.914978 
	C233.356964,449.777893 231.556061,452.612732 229.450760,455.156189 
	C220.849808,465.547272 209.596573,467.614044 196.989746,465.128601 
	C188.625656,461.574066 180.261566,458.019562 171.897476,454.465027 
	C171.945999,453.912567 171.994507,453.360107 172.043030,452.807678 
	C174.673752,451.314362 177.358765,449.908447 179.926392,448.313568 
	C196.458389,438.044556 199.761292,421.781769 195.292419,403.220764 
	C193.683670,396.538940 189.976501,390.371155 187.356903,383.916016 
	C186.874817,382.728119 186.377701,380.715240 186.971069,380.050781 
	C192.795883,373.528107 198.850220,367.210388 205.088898,360.568878 
	C217.318085,371.300415 231.574600,371.182587 247.245987,365.635284 
	C246.054138,362.897156 245.040085,360.567413 243.845291,357.822510 
	C233.624573,361.390900 223.709290,362.859619 214.311218,356.768433 
	C205.125732,350.815033 202.320602,340.855652 198.865616,330.963196 
	C196.296036,331.543732 193.928757,332.078552 190.451660,332.864105 
	C192.619583,338.494202 194.682571,343.646851 196.565308,348.864532 
	C197.139343,350.455292 198.045090,352.692505 197.396210,353.841522 
	C189.708115,367.455170 179.772217,378.796326 163.501190,381.690369 
	C151.087112,383.898407 139.864319,379.606476 129.430908,373.059326 
	C128.021301,372.174774 126.601974,371.302856 125.152954,370.485718 
	C124.746887,370.256775 124.218788,370.244171 123.481636,370.069519 
	C113.019463,392.486481 97.211075,406.174225 70.719276,402.065308 
	C64.372818,376.020203 87.370605,348.372589 118.244453,344.615509 
	C121.534607,326.759949 132.359146,315.059052 148.742447,308.157715 
	C157.654465,304.403564 166.893188,304.124146 176.044556,307.212799 
	C178.882416,308.170624 179.842484,307.709503 181.322052,305.046570 
	C190.724777,288.123474 204.089828,276.972504 224.528320,276.897644 
	C241.666183,276.834869 253.765564,285.220459 258.938538,301.766602 
	C261.140869,308.810913 262.675110,316.388550 262.713837,323.733307 
	C263.017761,381.385345 262.886963,439.039642 262.877014,496.693268 
	C262.876801,498.002838 262.722656,499.312408 262.590271,501.417694 
	C235.626328,490.509949 211.888870,493.545319 192.180756,516.882202 
	C186.961838,515.043030 182.401016,513.086670 177.840210,511.130310 
	C177.840210,511.130310 177.888123,511.057983 177.801025,510.830078 
	C177.205994,510.400848 176.698044,510.199554 176.190094,509.998260 
z"/>
<path fill="#60CD80" opacity="1.000000" stroke="none" 
	d="
M319.792786,205.891388 
	C327.794189,182.868454 335.802277,159.847839 343.791290,136.820633 
	C345.413422,132.145111 346.963654,127.444649 348.546997,122.755676 
	C347.948273,122.538795 347.349548,122.321915 346.750793,122.105034 
	C334.500732,147.955490 322.250641,173.805954 309.410675,199.773956 
	C297.896393,192.269379 286.930176,184.706070 276.071960,176.990814 
	C272.632721,174.547104 269.481628,171.697845 266.198639,169.034195 
	C268.501740,141.579575 278.257050,117.104355 295.242371,95.401146 
	C319.455658,64.462303 348.591309,38.746605 379.763519,15.159135 
	C380.283264,14.765862 380.920929,14.528443 382.300323,13.794190 
	C384.631226,22.490204 387.011322,30.887508 389.126038,39.351109 
	C395.142151,63.429039 399.263519,87.824677 401.578674,112.548927 
	C405.207733,151.304565 397.475586,187.031311 373.271576,218.886398 
	C363.597473,217.499481 354.541656,216.433823 345.767090,214.242096 
	C336.963013,212.042999 328.439362,208.721176 319.792786,205.891388 
z"/>
<path fill="#4EA95C" opacity="1.000000" stroke="none" 
	d="
M152.147629,140.838501 
	C151.920959,135.729919 151.717468,131.092804 151.463455,125.304527 
	C157.985107,127.662666 164.017929,129.645523 169.898987,132.006454 
	C190.493805,140.274231 210.948654,149.134171 227.676300,164.048553 
	C247.075562,181.344955 257.851898,203.084259 257.048645,229.684235 
	C256.830933,236.894745 254.223343,243.241226 249.219101,249.547028 
	C231.906891,229.506531 214.900055,209.819534 197.893219,190.132553 
	C197.375854,190.506943 196.858505,190.881332 196.341141,191.255737 
	C210.902069,212.562378 225.463013,233.869019 240.326233,255.617966 
	C229.616943,259.007324 219.801559,257.575043 210.420456,253.132584 
	C183.937103,240.591278 166.810730,220.010513 160.381973,191.464355 
	C156.666565,174.966568 154.844833,158.042297 152.147629,140.838501 
M195.322998,189.692047 
	C195.836655,189.844818 196.350327,189.997589 196.863998,190.150360 
	C196.525497,189.805405 196.186996,189.460434 195.322998,189.692047 
z"/>
<path fill="#F5C46B" opacity="1.000000" stroke="none" 
	d="
M77.954132,411.745605 
	C81.576202,411.359314 85.223160,411.129822 88.816040,410.559601 
	C104.481560,408.073395 115.664131,398.973450 124.334175,386.235992 
	C125.256363,384.881165 126.184967,383.530701 126.586441,382.944092 
	C135.468628,385.651520 143.677322,388.812592 152.176544,390.562714 
	C161.030731,392.385956 169.605408,389.627411 177.716461,386.130127 
	C187.138779,395.718079 191.689224,418.784027 185.788834,430.137909 
	C180.580643,440.159851 171.074219,444.586395 160.480652,446.946075 
	C159.351135,447.197601 158.182755,447.278381 157.058044,447.546112 
	C156.432404,447.695007 155.859756,448.066559 154.703217,448.592407 
	C158.605347,457.302551 162.391632,466.139648 156.764435,475.450867 
	C153.514404,480.828613 148.618347,484.073975 142.066071,485.872375 
	C137.908142,482.979492 134.237854,480.405945 130.976746,477.389954 
	C111.195747,459.095703 93.457916,439.069061 79.554337,415.858429 
	C78.809120,414.614380 78.478004,413.122253 77.954132,411.745605 
z"/>
<path fill="#F5C46B" opacity="1.000000" stroke="none" 
	d="
M309.241333,277.950531 
	C328.970123,273.303375 350.170898,282.314728 360.465881,300.352997 
	C368.843445,315.031677 372.500488,330.747589 365.988342,347.275146 
	C361.217102,359.384277 352.204529,367.747070 340.942413,374.277008 
	C325.552795,354.859497 304.868195,353.144104 283.156738,356.184631 
	C282.604523,355.568359 282.191772,355.321625 282.195557,355.081421 
	C282.428741,340.280060 281.557251,325.345703 283.272888,310.715027 
	C285.072479,295.367859 292.966034,283.172394 309.241333,277.950531 
z"/>
<path fill="#F5C46B" opacity="1.000000" stroke="none" 
	d="
M473.665283,480.006409 
	C469.900024,483.899475 466.080505,488.254700 461.519867,491.599426 
	C430.424927,514.404053 395.985596,529.892212 358.208344,537.747131 
	C336.839996,542.190308 315.186981,543.649780 293.389862,542.958252 
	C289.924438,542.848389 286.471771,542.337769 282.574280,542.018066 
	C282.135406,528.892334 282.135406,515.760864 282.135406,501.853790 
	C283.517975,502.803711 284.590546,503.374054 285.463562,504.164703 
	C309.449524,525.887817 339.202148,528.779541 366.679291,512.136902 
	C367.754517,511.485687 369.446960,511.513092 370.783875,511.702881 
	C373.894409,512.144470 376.963470,512.878662 380.807068,513.681946 
	C387.042389,514.144775 392.519989,514.419922 398.402893,514.756836 
	C419.785614,512.728333 432.357391,500.612457 438.324738,481.835815 
	C445.899780,482.122772 452.961365,482.390259 460.022919,482.657745 
	C464.438019,481.772217 468.853119,480.886627 473.665283,480.006409 
z"/>
<path fill="#4FA95D" opacity="1.000000" stroke="none" 
	d="
M319.575043,206.175262 
	C328.439362,208.721176 336.963013,212.042999 345.767090,214.242096 
	C354.541656,216.433823 363.597473,217.499481 373.017944,219.082352 
	C361.786407,235.832428 347.374084,249.207916 327.455048,255.495819 
	C319.573761,257.983765 311.536713,258.229553 302.846558,255.785614 
	C308.433441,239.094589 313.895355,222.776855 319.575043,206.175262 
z"/>
<path fill="#4EA95C" opacity="1.000000" stroke="none" 
	d="
M266.119568,169.457520 
	C269.481628,171.697845 272.632721,174.547104 276.071960,176.990814 
	C286.930176,184.706070 297.896393,192.269379 309.184448,200.015121 
	C302.294891,215.741745 295.041687,231.344727 287.514862,247.536270 
	C280.082520,241.111572 275.429504,233.582199 272.192444,225.195557 
	C265.295197,207.326233 263.714874,188.806198 266.119568,169.457520 
z"/>
<path fill="#F09F6D" opacity="1.000000" stroke="none" 
	d="
M77.539001,411.568848 
	C78.478004,413.122253 78.809120,414.614380 79.554337,415.858429 
	C93.457916,439.069061 111.195747,459.095703 130.976746,477.389954 
	C134.237854,480.405945 137.908142,482.979492 141.699814,485.896423 
	C137.767899,487.185730 133.525513,488.336121 128.925797,489.583435 
	C124.863464,473.298645 116.009720,461.788269 100.687210,456.417999 
	C85.863670,451.222626 71.224220,454.279541 56.350555,459.497742 
	C52.837948,445.548737 51.827793,432.366058 59.146030,419.884552 
	C63.070183,413.191742 68.941521,409.583069 77.539001,411.568848 
z"/>
<path fill="#F5C46E" opacity="1.000000" stroke="none" 
	d="
M262.720337,538.594727 
	C250.103683,536.219727 237.509949,533.729309 225.133545,530.424927 
	C216.871933,528.219055 208.919739,524.854431 200.451080,522.002258 
	C210.973923,505.825409 233.752197,499.391449 253.002228,507.045685 
	C262.892578,510.978302 262.898804,510.978271 262.890350,521.652832 
	C262.885986,527.146240 262.854797,532.639648 262.720337,538.594727 
z"/>
<path fill="#FDFBF7" opacity="1.000000" stroke="none" 
	d="
M460.024048,482.319641 
	C452.961365,482.390259 445.899780,482.122772 438.324738,481.835815 
	C432.357391,500.612457 419.785614,512.728333 398.460266,514.427124 
	C400.138611,511.711090 404.485229,510.509430 402.000336,506.001678 
	C415.434296,502.717499 424.574127,494.767303 429.119324,481.535522 
	C430.153687,478.524323 429.843811,476.899200 427.119781,474.945709 
	C415.143738,466.357178 408.298004,450.145264 410.591339,436.692566 
	C418.087769,435.268555 418.491547,435.562286 418.998413,442.807007 
	C420.301819,461.437073 432.416199,472.783691 452.542511,474.030975 
	C456.342865,474.266449 460.178986,473.925140 464.458862,473.821503 
	C463.287781,476.522522 461.656464,479.252045 460.024048,482.319641 
z"/>
<path fill="#FBFAF6" opacity="1.000000" stroke="none" 
	d="
M196.992920,465.539246 
	C209.596573,467.614044 220.849808,465.547272 229.450760,455.156189 
	C231.556061,452.612732 233.356964,449.777893 235.018707,446.914978 
	C238.355194,441.166779 238.275818,441.120697 244.632187,444.141388 
	C242.452225,459.925659 221.954010,480.351227 196.247009,473.469177 
	C196.302658,470.800629 196.649384,468.375244 196.992920,465.539246 
z"/>
<path fill="#FEFFFE" opacity="1.000000" stroke="none" 
	d="
M401.532715,505.989258 
	C404.485229,510.509430 400.138611,511.711090 398.054932,514.365356 
	C392.519989,514.419922 387.042389,514.144775 381.239349,513.697021 
	C380.423065,512.190247 379.932281,510.855988 379.335968,509.234924 
	C381.161163,508.443665 382.996582,507.648010 384.911438,506.504547 
	C390.348938,506.096741 395.707031,506.036774 401.532715,505.989258 
z"/>
<path fill="#EFA271" opacity="1.000000" stroke="none" 
	d="
M177.869476,511.480072 
	C182.401016,513.086670 186.961838,515.043030 191.906769,517.062622 
	C190.652618,520.121277 189.014343,523.116699 187.056946,526.695679 
	C183.723587,521.284851 180.811157,516.557373 177.869476,511.480072 
z"/>
<path fill="#EFA271" opacity="1.000000" stroke="none" 
	d="
M176.302826,510.262390 
	C176.698044,510.199554 177.205994,510.400848 177.832977,510.859436 
	C177.439850,510.919983 176.927704,510.723267 176.302826,510.262390 
z"/>
<path fill="#F5C46B" opacity="1.000000" stroke="none" 
	d="
M437.982910,347.012421 
	C437.849854,346.865204 437.743927,346.692841 437.638000,346.520477 
	C437.753143,346.554321 437.868347,346.588135 438.021973,346.777588 
	C438.060455,346.933197 438.010010,346.987274 437.982910,347.012421 
z"/>
<path fill="#F09E6D" opacity="1.000000" stroke="none" 
	d="
M417.042755,652.047241 
	C416.919861,652.073853 416.764984,652.067139 416.776886,652.005554 
	C416.943634,651.950745 417.010803,652.013977 417.042755,652.047241 
z"/>
<path fill="#FEFEFE" opacity="1.000000" stroke="none" 
	d="
M195.585754,189.403748 
	C196.186996,189.460434 196.525497,189.805405 196.863983,190.150360 
	C196.350327,189.997589 195.836655,189.844818 195.585754,189.403748 
z"/>
</svg>