<svg viewBox="0 0 48 48" fill="none" xmlns="http://www.w3.org/2000/svg">
  <!-- Tree trunk -->
  <path 
    d="M24 44 L24 28" 
    stroke="#c57b5a" 
    stroke-width="3.5" 
    stroke-linecap="round"
  />
  <!-- Small roots -->
  <path 
    d="M24 44 Q21 46 18 47 M24 44 Q27 46 30 47" 
    stroke="#c57b5a" 
    stroke-width="2" 
    stroke-linecap="round"
  />
  
  <!-- Brain - Left hemisphere -->
  <path 
    d="M24 10 
       C20 10 18 8 15 8
       C10 8 7 12 7 17
       C7 22 10 26 15 27
       C18 27.5 21 27 24 26" 
    stroke="#3e879e" 
    stroke-width="2.5" 
    stroke-linecap="round"
    stroke-linejoin="round"
    fill="rgba(62, 135, 158, 0.1)"
  />
  
  <!-- Brain - Right hemisphere -->
  <path 
    d="M24 10 
       C28 10 30 8 33 8
       C38 8 41 12 41 17
       C41 22 38 26 33 27
       C30 27.5 27 27 24 26" 
    stroke="#3e879e" 
    stroke-width="2.5" 
    stroke-linecap="round"
    stroke-linejoin="round"
    fill="rgba(62, 135, 158, 0.1)"
  />
  
  <!-- Brain stem connecting to trunk -->
  <path 
    d="M24 26 L24 28" 
    stroke="#3e879e" 
    stroke-width="2.5" 
    stroke-linecap="round"
  />
  
  <!-- Brain folds - left hemisphere -->
  <path 
    d="M12 14 Q14 12 16 14 Q18 16 15 18
       M10 19 Q13 17 16 20
       M17 11 Q19 14 17 16" 
    stroke="#3e879e" 
    stroke-width="1.5" 
    stroke-linecap="round"
    fill="none"
  />
  
  <!-- Brain folds - right hemisphere -->
  <path 
    d="M36 14 Q34 12 32 14 Q30 16 33 18
       M38 19 Q35 17 32 20
       M31 11 Q29 14 31 16" 
    stroke="#3e879e" 
    stroke-width="1.5" 
    stroke-linecap="round"
    fill="none"
  />
  
  <!-- Central fissure -->
  <path 
    d="M24 10 L24 24" 
    stroke="#3e879e" 
    stroke-width="1.2" 
    stroke-linecap="round"
    stroke-dasharray="2 3"
  />
  
  <!-- Small leaf accents sprouting from brain -->
  <ellipse cx="11" cy="11" rx="2" ry="3" fill="#f48c44" opacity="0.85" transform="rotate(-30 11 11)"/>
  <ellipse cx="37" cy="11" rx="2" ry="3" fill="#f48c44" opacity="0.85" transform="rotate(30 37 11)"/>
  <ellipse cx="24" cy="5" rx="1.5" ry="2.5" fill="#f48c44" opacity="0.7"/>
</svg>
