<svg viewBox="0 0 48 56" fill="none" xmlns="http://www.w3.org/2000/svg">
  <!-- Tree trunk - more substantial -->
  <path 
    d="M24 52 L24 32" 
    stroke="#c57b5a" 
    stroke-width="4" 
    stroke-linecap="round"
  />
  <!-- Roots spreading out -->
  <path 
    d="M24 52 Q20 54 16 55 M24 52 Q28 54 32 55 M24 52 L24 55" 
    stroke="#c57b5a" 
    stroke-width="2.5" 
    stroke-linecap="round"
  />
  
  <!-- Brain - Left hemisphere with realistic curve -->
  <path 
    d="M24 12 
       C20 12 17 9 13 9
       C7 9 4 14 4 20
       C4 26 8 31 14 32
       C18 32.5 21 31 24 30" 
    stroke="#3e879e" 
    stroke-width="2.5" 
    stroke-linecap="round"
    stroke-linejoin="round"
    fill="rgba(62, 135, 158, 0.12)"
  />
  
  <!-- Brain - Right hemisphere -->
  <path 
    d="M24 12 
       C28 12 31 9 35 9
       C41 9 44 14 44 20
       C44 26 40 31 34 32
       C30 32.5 27 31 24 30" 
    stroke="#3e879e" 
    stroke-width="2.5" 
    stroke-linecap="round"
    stroke-linejoin="round"
    fill="rgba(62, 135, 158, 0.12)"
  />
  
  <!-- Brain stem -->
  <path 
    d="M24 30 L24 32" 
    stroke="#3e879e" 
    stroke-width="3" 
    stroke-linecap="round"
  />
  
  <!-- Gyri and sulci - left side (brain folds) -->
  <path 
    d="M9 16 Q12 14 14 17 Q16 20 12 22
       M7 22 Q11 20 14 24
       M15 12 Q18 16 15 19
       M10 27 Q14 25 17 28" 
    stroke="#3e879e" 
    stroke-width="1.5" 
    stroke-linecap="round"
    fill="none"
  />
  
  <!-- Gyri and sulci - right side -->
  <path 
    d="M39 16 Q36 14 34 17 Q32 20 36 22
       M41 22 Q37 20 34 24
       M33 12 Q30 16 33 19
       M38 27 Q34 25 31 28" 
    stroke="#3e879e" 
    stroke-width="1.5" 
    stroke-linecap="round"
    fill="none"
  />
  
  <!-- Corpus callosum / central connection -->
  <path 
    d="M18 20 Q24 17 30 20" 
    stroke="#3e879e" 
    stroke-width="1.5" 
    stroke-linecap="round"
    fill="none"
  />
  
  <!-- Central fissure line -->
  <path 
    d="M24 12 L24 28" 
    stroke="#3e879e" 
    stroke-width="1" 
    stroke-linecap="round"
    opacity="0.5"
  />
  
  <!-- Leaf/growth accents -->
  <ellipse cx="8" cy="12" rx="2.5" ry="4" fill="#f48c44" opacity="0.9" transform="rotate(-35 8 12)"/>
  <ellipse cx="40" cy="12" rx="2.5" ry="4" fill="#f48c44" opacity="0.9" transform="rotate(35 40 12)"/>
  <ellipse cx="24" cy="5" rx="2" ry="3.5" fill="#f48c44" opacity="0.8"/>
  <ellipse cx="16" cy="7" rx="1.5" ry="2.5" fill="#f48c44" opacity="0.6" transform="rotate(-20 16 7)"/>
  <ellipse cx="32" cy="7" rx="1.5" ry="2.5" fill="#f48c44" opacity="0.6" transform="rotate(20 32 7)"/>
</svg>
