<svg viewBox="0 0 48 48" width="48" height="48" fill="none" xmlns="http://www.w3.org/2000/svg">
  <defs>
    <linearGradient id="brainGradient" x1="0%" y1="100%" x2="100%" y2="0%">
      <stop offset="0%" stop-color="#E8845C"/>
      <stop offset="50%" stop-color="#F5A864"/>
      <stop offset="100%" stop-color="#F9C97C"/>
    </linearGradient>
  </defs>
  
  <!-- Left leaf -->
  <path 
    d="M20 16 C20 16 17 9 20 4 C23 9 20 16 20 16 C20 16 15 11 20 4" 
    fill="#5BBD8C"
  />
  
  <!-- Right leaf -->
  <path 
    d="M28 16 C28 16 31 9 28 4 C25 9 28 16 28 16 C28 16 33 11 28 4" 
    fill="#4DAF7C"
  />
  
  <!-- Brain - Left hemisphere -->
  <path 
    d="M24 14
       C21 14 18 13 15 15
       C12 17 9 19 8 23
       C7 27 8 31 10 34
       C12 37 11 38 13 40
       C15 42 18 43 21 42
       C23 41 24 38 24 36
       L24 14Z" 
    fill="url(#brainGradient)"
  />
  
  <!-- Brain - Right hemisphere -->
  <path 
    d="M24 14
       C27 14 30 13 33 16
       C36 19 39 21 40 25
       C41 29 39 33 37 36
       C35 39 36 40 34 41
       C32 43 29 43 26 41
       C24 40 24 37 24 36
       L24 14Z" 
    fill="url(#brainGradient)"
  />
  
  <!-- Brain folds - Left -->
  <path d="M11 24 Q14 22 17 25 Q20 28 16 30" stroke="white" stroke-width="1.5" stroke-linecap="round" fill="none"/>
  <path d="M10 31 Q14 29 17 33 Q19 37 14 38" stroke="white" stroke-width="1.5" stroke-linecap="round" fill="none"/>
  <path d="M16 17 Q18 21 16 25" stroke="white" stroke-width="1.2" stroke-linecap="round" fill="none"/>
  
  <!-- Brain folds - Right -->
  <path d="M37 26 Q34 24 31 27 Q28 30 32 32" stroke="white" stroke-width="1.5" stroke-linecap="round" fill="none"/>
  <path d="M38 33 Q34 32 31 35 Q29 38 33 39" stroke="white" stroke-width="1.5" stroke-linecap="round" fill="none"/>
  <path d="M32 18 Q30 22 32 26" stroke="white" stroke-width="1.2" stroke-linecap="round" fill="none"/>
</svg>
