<svg viewBox="0 0 64 64" width="64" height="64" fill="none" xmlns="http://www.w3.org/2000/svg">
  <defs>
    <!-- Orange gradient: light top to darker bottom -->
    <linearGradient id="brainGradient" x1="0%" y1="0%" x2="0%" y2="100%">
      <stop offset="0%" stop-color="#F9C97C"/>
      <stop offset="50%" stop-color="#F5A864"/>
      <stop offset="100%" stop-color="#E8845C"/>
    </linearGradient>
  </defs>
  
  <!-- Left leaf -->
  <path 
    d="M26 22 C26 22 22 12 26 6 C30 12 26 22 26 22 C26 22 20 16 26 6" 
    fill="#5BBD8C"
  />
  
  <!-- Right leaf -->
  <path 
    d="M38 22 C38 22 42 12 38 6 C34 12 38 22 38 22 C38 22 44 16 38 6" 
    fill="#4DAF7C"
  />
  
  <!-- Brain - Left hemisphere -->
  <path 
    d="M32 20
       C28 20 26 18 22 20
       C18 22 14 24 12 28
       C10 32 10 36 12 40
       C14 44 12 46 14 50
       C16 54 20 56 24 56
       C28 56 28 54 30 52
       C31 50 32 48 32 46
       L32 20Z" 
    fill="url(#brainGradient)"
  />
  
  <!-- Brain - Right hemisphere -->
  <path 
    d="M32 20
       C36 20 38 18 42 20
       C46 22 50 24 52 28
       C54 32 54 36 52 40
       C50 44 52 46 50 50
       C48 54 44 56 40 56
       C36 56 36 54 34 52
       C33 50 32 48 32 46
       L32 20Z" 
    fill="url(#brainGradient)"
  />
  
  <!-- Brain folds - Left side (white curves) -->
  <path d="M16 30 Q20 28 24 31 Q28 34 24 38" stroke="white" stroke-width="2" stroke-linecap="round" fill="none"/>
  <path d="M14 38 Q18 36 22 40 Q26 44 20 46" stroke="white" stroke-width="2" stroke-linecap="round" fill="none"/>
  <path d="M18 48 Q22 46 26 50" stroke="white" stroke-width="2" stroke-linecap="round" fill="none"/>
  <path d="M22 24 Q24 28 22 32" stroke="white" stroke-width="1.5" stroke-linecap="round" fill="none"/>
  
  <!-- Brain folds - Right side (white curves) -->
  <path d="M48 30 Q44 28 40 31 Q36 34 40 38" stroke="white" stroke-width="2" stroke-linecap="round" fill="none"/>
  <path d="M50 38 Q46 36 42 40 Q38 44 44 46" stroke="white" stroke-width="2" stroke-linecap="round" fill="none"/>
  <path d="M46 48 Q42 46 38 50" stroke="white" stroke-width="2" stroke-linecap="round" fill="none"/>
  <path d="M42 24 Q40 28 42 32" stroke="white" stroke-width="1.5" stroke-linecap="round" fill="none"/>
  
  <!-- Center dividing line -->
  <line x1="32" y1="20" x2="32" y2="56" stroke="white" stroke-width="2" stroke-linecap="round"/>
</svg>
