<svg viewBox="0 0 64 56" fill="none" xmlns="http://www.w3.org/2000/svg">
  <!-- Brain with leaf - larger version -->
  
  <!-- Brain outline with bumpy lobes -->
  <path 
    d="M32 52 
       C26 52 20 49 16 45
       C12 41 9 36 8 30
       C7 24 8 18 12 13
       C14 10 17 8 20 7
       C19 5 19 3 22 2
       C25 1 28 3 29 5
       C30 3 32 2 35 2
       C38 2 40 3 41 5
       C42 3 45 1 48 2
       C51 3 51 5 50 7
       C53 8 56 10 58 13
       C62 18 63 24 62 30
       C61 36 58 41 54 45
       C50 49 44 52 38 52
       C35 52 33 52 32 52Z" 
    stroke="#3e879e" 
    stroke-width="3.5" 
    stroke-linecap="round"
    stroke-linejoin="round"
    fill="none"
  />
  
  <!-- Leaf overlapping brain -->
  <path 
    d="M14 50 
       C14 50 18 42 24 32
       C30 22 38 12 50 6
       C50 6 46 18 40 30
       C34 42 24 52 14 50Z" 
    fill="#f48c44"
  />
  
  <!-- Leaf vein/stem -->
  <path 
    d="M14 50 C24 40 36 24 50 6" 
    stroke="white" 
    stroke-width="2" 
    stroke-linecap="round"
    fill="none"
  />
</svg>
