<svg viewBox="0 0 56 64" fill="none" xmlns="http://www.w3.org/2000/svg">
  <!-- Phosphor-style brain-tree logo (larger version) -->
  
  <!-- Tree trunk -->
  <path 
    d="M28 38 L28 56" 
    stroke="#c57b5a" 
    stroke-width="2.5" 
    stroke-linecap="round"
  />
  <!-- Roots -->
  <path 
    d="M28 56 L22 61 M28 56 L28 62 M28 56 L34 61" 
    stroke="#c57b5a" 
    stroke-width="2" 
    stroke-linecap="round"
  />
  
  <!-- Brain - Left hemisphere -->
  <path 
    d="M28 10 
       C28 10 22 10 18 13
       C14 16 11 20 11 26
       C11 32 14 36 19 38
       C24 40 28 38 28 38" 
    stroke="#3e879e" 
    stroke-width="2.5" 
    stroke-linecap="round"
    stroke-linejoin="round"
    fill="none"
  />
  
  <!-- Brain - Right hemisphere -->
  <path 
    d="M28 10 
       C28 10 34 10 38 13
       C42 16 45 20 45 26
       C45 32 42 36 37 38
       C32 40 28 38 28 38" 
    stroke="#3e879e" 
    stroke-width="2.5" 
    stroke-linecap="round"
    stroke-linejoin="round"
    fill="none"
  />
  
  <!-- Brain folds - left -->
  <path d="M17 19 C20 17 22 20 20 23" stroke="#3e879e" stroke-width="2" stroke-linecap="round" fill="none"/>
  <path d="M15 28 C18 26 21 29 18 32" stroke="#3e879e" stroke-width="2" stroke-linecap="round" fill="none"/>
  
  <!-- Brain folds - right -->
  <path d="M39 19 C36 17 34 20 36 23" stroke="#3e879e" stroke-width="2" stroke-linecap="round" fill="none"/>
  <path d="M41 28 C38 26 35 29 38 32" stroke="#3e879e" stroke-width="2" stroke-linecap="round" fill="none"/>
  
  <!-- Central line -->
  <path d="M28 14 L28 34" stroke="#3e879e" stroke-width="2" stroke-linecap="round" fill="none"/>
  
  <!-- Leaves sprouting from top -->
  <path 
    d="M28 10 C28 6 31 3 35 3 C35 7 32 10 28 10" 
    stroke="#f48c44" 
    stroke-width="2" 
    stroke-linecap="round"
    stroke-linejoin="round"
    fill="none"
  />
  <path 
    d="M28 10 C28 6 25 3 21 3 C21 7 24 10 28 10" 
    stroke="#f48c44" 
    stroke-width="2" 
    stroke-linecap="round"
    stroke-linejoin="round"
    fill="none"
  />
  <!-- Center leaf -->
  <path 
    d="M28 10 C28 5 28 2 28 2" 
    stroke="#f48c44" 
    stroke-width="1.5" 
    stroke-linecap="round"
  />
  <circle cx="28" cy="2" r="1.5" fill="#f48c44"/>
</svg>
